<svg width="22" height="26" viewBox="0 0 22 26" fill="none" xmlns="http://www.w3.org/2000/svg">
<path d="M8.07771 22.0611C9.06907 22.0611 9.87271 21.1204 9.87271 19.9601C9.87271 18.7997 9.06907 17.859 8.07771 17.859C7.08636 17.859 6.28271 18.7997 6.28271 19.9601C6.28271 21.1204 7.08636 22.0611 8.07771 22.0611Z" stroke="white" stroke-width="1.795" stroke-linecap="round" stroke-linejoin="round"/>
<path d="M15.2574 22.0611C16.2488 22.0611 17.0524 21.1204 17.0524 19.9601C17.0524 18.7997 16.2488 17.859 15.2574 17.859C14.2661 17.859 13.4624 18.7997 13.4624 19.9601C13.4624 21.1204 14.2661 22.0611 15.2574 22.0611Z" stroke="white" stroke-width="1.795" stroke-linecap="round" stroke-linejoin="round"/>
<path d="M2.69238 3.15159H4.48738L6.28238 15.7579C6.47599 16.4024 6.84327 16.9558 7.32889 17.3348C7.81451 17.7137 8.39218 17.8977 8.97488 17.859H15.2574C15.8401 17.8977 16.4178 17.7137 16.9034 17.3348C17.389 16.9558 17.7563 16.4024 17.9499 15.7579L18.8474 8.40424H5.20538" stroke="white" stroke-width="1.795" stroke-linecap="round" stroke-linejoin="round"/>
</svg>
